HIERARCHY
ROOT root
{
	OFFSET	0	13.1	24.9
	CHANNELS 6  Xposition Yposition Zposition Xrotation Yrotation Zrotation
	JOINT spine_1
	{
		OFFSET	0	9.99999	0
		CHANNELS 3  Xrotation Yrotation Zrotation
		JOINT spine_2
		{
			OFFSET	0	112	-10
			CHANNELS 3  Xrotation Yrotation Zrotation
			JOINT spine_3
			{
				OFFSET	0	206.5	19.3
				CHANNELS 3  Xrotation Yrotation Zrotation
				JOINT spine_4
				{
					OFFSET	0	110.4	14.6
					CHANNELS 3  Xrotation Yrotation Zrotation
					JOINT neck_1
					{
						OFFSET	0	71.8	-50.3
						CHANNELS 3  Xrotation Yrotation Zrotation
						JOINT neck_2
						{
							OFFSET	0	86.2	-25.8
							CHANNELS 3  Xrotation Yrotation Zrotation
							JOINT head_ee
							{
								OFFSET	0	179.8	-8.7
								CHANNELS 3  Xrotation Yrotation Zrotation
								End Site
								{
									OFFSET	1	0	0
								}
							}
						}
					}
					JOINT left_clavicle
					{
						OFFSET	-43.2	22.4	-70.8
						CHANNELS 3  Xrotation Yrotation Zrotation
						JOINT left_shoulder
						{
							OFFSET	-93.9	-5.79999	48.7
							CHANNELS 3  Xrotation Yrotation Zrotation
							JOINT left_elbow
							{
								OFFSET	-291.4	-30.8	15.2
								CHANNELS 3  Xrotation Yrotation Zrotation
								JOINT left_lowarm_twist
								{
									OFFSET	-110.7	-3.89999	13.6
									CHANNELS 3  Xrotation Yrotation Zrotation
									JOINT left_hand
									{
										OFFSET	-110.7	-3.89999	13.6
										CHANNELS 3  Xrotation Yrotation Zrotation
										JOINT left_ee
										{
											OFFSET	-80.8	-5.10001	12.1
											CHANNELS 3  Xrotation Yrotation Zrotation
											End Site
											{
												OFFSET	1	0	0
											}
										}
									}
								}
							}
						}
					}
					JOINT right_clavicle
					{
						OFFSET	43.2	22.4	-70.8
						CHANNELS 3  Xrotation Yrotation Zrotation
						JOINT right_shoulder
						{
							OFFSET	93.9	-5.79999	48.7
							CHANNELS 3  Xrotation Yrotation Zrotation
							JOINT right_elbow
							{
								OFFSET	291.4	-30.8	15.2
								CHANNELS 3  Xrotation Yrotation Zrotation
								JOINT right_lowarm_twist
								{
									OFFSET	110.7	-3.89999	13.6
									CHANNELS 3  Xrotation Yrotation Zrotation
									JOINT right_hand
									{
										OFFSET	110.7	-3.89999	13.6
										CHANNELS 3  Xrotation Yrotation Zrotation
										JOINT right_ee
										{
											OFFSET	80.8	-5.10001	12.1
											CHANNELS 3  Xrotation Yrotation Zrotation
											End Site
											{
												OFFSET	1	0	0
											}
										}
									}
								}
							}
						}
					}
				}
			}
		}
	}
	JOINT left_hip
	{
		OFFSET	-82.8	-127.5	0.300001
		CHANNELS 3  Xrotation Yrotation Zrotation
		JOINT left_knee
		{
			OFFSET	-28.2	-396.7	2.2
			CHANNELS 3  Xrotation Yrotation Zrotation
			JOINT left_ankle
			{
				OFFSET	-11.7	-411.3	35.4
				CHANNELS 3  Xrotation Yrotation Zrotation
				JOINT left_toes
				{
					OFFSET	0	-60	-88.6
					CHANNELS 3  Xrotation Yrotation Zrotation
					JOINT left_foot_ee
					{
						OFFSET	-22.5	-16.5	-42.2
						CHANNELS 3  Xrotation Yrotation Zrotation
						End Site
						{
							OFFSET	1	0	0
						}
					}
				}
			}
		}
	}
	JOINT right_hip
	{
		OFFSET	82.8	-127.5	0.300001
		CHANNELS 3  Xrotation Yrotation Zrotation
		JOINT right_knee
		{
			OFFSET	28.2	-396.7	2.2
			CHANNELS 3  Xrotation Yrotation Zrotation
			JOINT right_ankle
			{
				OFFSET	11.7	-411.3	35.4
				CHANNELS 3  Xrotation Yrotation Zrotation
				JOINT right_toes
				{
					OFFSET	0	-60	-88.6
					CHANNELS 3  Xrotation Yrotation Zrotation
					JOINT right_foot_ee
					{
						OFFSET	22.5	-16.5	-42.2
						CHANNELS 3  Xrotation Yrotation Zrotation
						End Site
						{
							OFFSET	1	0	0
						}
					}
				}
			}
		}
	}
}
MOTION
Frames: 15
Frame Time: 0.02
2837.22543395 719.29 -1627.1612796 14.7173276574 72.2121070506 -9.88631718842 -2.32496 0.164635 2.75617 -2.32073 -0.0110126 2.76105 -2.31699 -0.700141 2.6709 -2.32685 -0.269703 2.74788 -14.9858 13.6886 -13.3629 -15.5753 34.0283 -7.88572 -0.0 0.0 -0.0 -4.62977 19.7632 -4.55747 31.5037 -12.6884 65.1873 1.87531 -42.887 0.736627 17.3268 0.281736 -2.187 1.24624 27.4022 17.8861 -0.0 0.0 -0.0 10.3641 23.068 -19.9703 -15.4363 25.7984 -68.9986 0.83269 22.4155 -0.164997 49.9061 0.962098 6.10336 -0.9798 -12.6524 0.967523 0.0 0.0 0.0 3.03144 19.5091 -8.54665 -6.99354 0.224131 1.04924 29.648 -22.9207 -4.40245 -29.1967 0.0 0.0 -0.0 0.0 -0.0 6.8466 23.4749 -12.0171 -42.3273 0.621431 -6.32098 36.2749 -19.1483 4.65245 19.7896 -0.0 -0.0 0.0 0.0 0.0 
2838.60140311 719.29 -1617.25126942 16.1778720414 73.8260476377 -11.4132818837 -2.32496 0.164635 2.75617 -2.32073 -0.0110126 2.76105 -2.31699 -0.700141 2.6709 -2.32685 -0.269703 2.74788 -14.9858 13.6886 -13.3629 -15.5753 34.0283 -7.88572 -0.0 0.0 -0.0 -4.62977 19.7632 -4.55747 31.5037 -12.6884 65.1873 1.87531 -42.887 0.736627 17.3268 0.281736 -2.187 1.24624 27.4022 17.8861 -0.0 0.0 -0.0 10.3641 23.068 -19.9703 -15.4363 25.7984 -68.9986 0.83269 22.4155 -0.164997 49.9061 0.962098 6.10336 -0.9798 -12.6524 0.967523 0.0 0.0 0.0 3.03144 19.5091 -8.54665 -6.99354 0.224131 1.04924 29.648 -22.9207 -4.40245 -29.1967 0.0 0.0 -0.0 0.0 -0.0 6.8466 23.4749 -12.0171 -42.3273 0.621431 -6.32098 36.2749 -19.1483 4.65245 19.7896 -0.0 -0.0 0.0 0.0 0.0 
2835.98225745 725.088 -1590.23254649 19.097309785 78.2457402954 -14.3598589694 -2.11257 -0.0411223 2.61813 -2.10878 -0.20758 2.61022 -2.11504 -0.844201 2.47872 -2.12334 -0.442277 2.58085 -17.0664 13.9385 -14.4043 -17.9664 34.7255 -8.06568 -0.0 0.0 -0.0 -4.22885 19.6581 -3.98124 33.5343 -13.2282 65.9989 2.09561 -46.0654 0.891027 17.6081 0.280818 -2.22291 1.23228 24.2939 16.9104 -0.0 0.0 -0.0 9.33524 20.7683 -17.8615 -16.6074 26.6264 -68.7968 0.841051 22.618 -0.168199 47.8633 0.820129 5.88373 -0.819467 -13.3968 -0.363412 0.0 0.0 0.0 0.340365 20.0105 -6.89239 1.26193 -0.0540183 -0.186109 21.6539 -25.818 -3.4869 -29.495 0.0 0.0 -0.0 0.0 -0.0 9.57093 14.5581 -9.54841 -41.4293 0.560196 -6.1972 29.2477 -24.25 4.00255 19.0152 -0.0 -0.0 0.0 0.0 0.0 
2821.6011863 732.114 -1558.92934003 31.3506793988 83.4158133066 -26.6272014959 -2.01732 -0.0750362 2.19137 -2.01467 -0.214293 2.18216 -2.02073 -0.741736 2.06344 -2.02644 -0.406626 2.15464 -17.9298 13.0295 -15.9215 -18.7093 33.6428 -9.66595 -0.0 0.0 -0.0 -3.00472 19.341 -2.21603 36.2445 -13.838 67.0715 2.2081 -47.5595 0.973052 17.9569 0.279434 -2.26744 0.972924 20.1181 14.0199 -0.0 0.0 -0.0 8.51273 16.1808 -16.3521 -18.9793 27.1466 -67.5713 0.744285 20.2387 -0.132839 44.9494 0.631411 5.56208 -0.700372 -15.1606 -1.85904 0.0 0.0 0.0 -2.28654 23.8646 -4.92991 7.51806 -0.381731 -1.0892 13.0659 -29.1386 -2.2929 -29.4241 0.0 0.0 -0.0 0.0 -0.0 14.2431 8.4845 -9.54744 -37.9562 0.341886 -5.71002 16.27 -29.934 2.44354 16.4409 -0.0 -0.0 0.0 0.0 0.0 
2785.95795129 727.347 -1524.83315746 37.6847571314 86.4220028772 -33.2136524807 -0.82146 -0.240098 1.75657 -0.819812 -0.35137 1.73774 -0.829793 -0.732455 1.61456 -0.833125 -0.468312 1.70994 -20.6372 12.6264 -15.5693 -21.6737 32.0219 -8.73634 -0.0 0.0 -0.0 -0.659088 18.1101 1.11815 40.11 -14.2026 68.0887 2.4593 -50.6116 1.16295 18.3697 0.277447 -2.32014 0.509609 16.6863 9.95416 -0.0 0.0 -0.0 7.26657 12.5044 -13.8429 -22.2283 26.9749 -67.3667 0.675275 18.4958 -0.109951 43.021 0.515651 5.34419 -0.432797 -15.2641 -3.55836 0.0 0.0 0.0 -4.01625 24.5705 -3.80564 6.02675 -0.294664 -0.877193 14.4976 -23.7898 -2.37233 -27.6835 0.0 0.0 -0.0 0.0 -0.0 18.0308 1.22839 -7.86391 -20.5428 -0.288791 -3.12237 7.57938 -27.2462 1.15 11.168 -0.0 -0.0 0.0 0.0 0.0 
2787.02265691 727.347 -1521.98291367 42.1806211892 86.742899652 -37.7175002726 -0.82146 -0.240098 1.75657 -0.819812 -0.35137 1.73774 -0.829793 -0.732455 1.61456 -0.833125 -0.468312 1.70994 -20.6372 12.6264 -15.5693 -21.6737 32.0219 -8.73634 -0.0 0.0 -0.0 -0.659088 18.1101 1.11815 40.11 -14.2026 68.0887 2.4593 -50.6116 1.16295 18.3697 0.277447 -2.32014 0.509609 16.6863 9.95416 -0.0 0.0 -0.0 7.26657 12.5044 -13.8429 -22.2283 26.9749 -67.3667 0.675275 18.4958 -0.109951 43.021 0.515651 5.34419 -0.432797 -15.2641 -3.55836 0.0 0.0 0.0 -4.01625 24.5705 -3.80564 6.02675 -0.294664 -0.877193 14.4976 -23.7898 -2.37233 -27.6835 0.0 0.0 -0.0 0.0 -0.0 18.0308 1.22839 -7.86391 -20.5428 -0.288791 -3.12237 7.57938 -27.2462 1.15 11.168 -0.0 -0.0 0.0 0.0 0.0 
2780.10331969 723.284 -1508.71655109 31.9676263963 87.9370923031 -28.085448165 -0.606914 -0.139864 1.74985 -0.605245 -0.250911 1.73741 -0.612125 -0.628224 1.6392 -0.615693 -0.3615 1.71782 -20.3495 12.1148 -16.2817 -21.2096 31.4768 -9.76088 -0.0 0.0 -0.0 -0.874652 18.8229 0.887971 40.5349 -14.642 68.5115 2.71335 -53.3418 1.36313 18.6902 0.275642 -2.36102 0.898885 15.0433 11.8057 -0.0 0.0 -0.0 7.03471 11.9899 -13.372 -23.0698 26.8786 -67.5873 0.649685 17.8401 -0.101972 42.5311 0.487418 5.28823 -0.450198 -15.5112 -3.55239 0.0 0.0 0.0 -3.62979 24.0296 -3.18393 6.56224 -0.32529 -0.953574 8.8871 -25.0751 -1.5121 -27.9866 0.0 0.0 -0.0 0.0 -0.0 19.8938 -0.249836 -7.92819 -12.6626 -0.310894 -1.91445 4.30133 -22.4736 0.642214 9.31028 -0.0 -0.0 0.0 0.0 0.0 
2779.83192311 723.284 -1509.38904574 30.5962588703 87.8541513504 -26.7131555998 -0.606914 -0.139864 1.74985 -0.605245 -0.250911 1.73741 -0.612125 -0.628224 1.6392 -0.615693 -0.3615 1.71782 -20.3495 12.1148 -16.2817 -21.2096 31.4768 -9.76088 -0.0 0.0 -0.0 -0.874652 18.8229 0.887971 40.5349 -14.642 68.5115 2.71335 -53.3418 1.36313 18.6902 0.275642 -2.36102 0.898885 15.0433 11.8057 -0.0 0.0 -0.0 7.03471 11.9899 -13.372 -23.0698 26.8786 -67.5873 0.649685 17.8401 -0.101972 42.5311 0.487418 5.28823 -0.450198 -15.5112 -3.55239 0.0 0.0 0.0 -3.62979 24.0296 -3.18393 6.56224 -0.32529 -0.953574 8.8871 -25.0751 -1.5121 -27.9866 0.0 0.0 -0.0 0.0 -0.0 19.8938 -0.249836 -7.92819 -12.6626 -0.310894 -1.91445 4.30133 -22.4736 0.642214 9.31028 -0.0 -0.0 0.0 0.0 0.0 
2770.71834638 719.923 -1505.95600855 21.3830610522 88.3717875098 -17.6089759881 -0.455529 -0.00174151 1.68514 -0.453955 -0.108952 1.68162 -0.456381 -0.472994 1.61742 -0.45997 -0.211655 1.6718 -18.6132 12.8934 -16.1441 -19.4444 33.3384 -9.73261 -0.0 0.0 -0.0 -0.784624 18.3101 0.954234 41.1474 -15.2692 68.7875 2.83437 -54.5305 1.46097 18.9022 0.274323 -2.38807 1.29408 14.0162 13.9739 -0.0 0.0 -0.0 6.73394 10.975 -12.7808 -23.6024 26.8228 -67.7471 0.679337 18.5994 -0.111243 42.644 0.493882 5.30115 -0.0490309 -15.4372 -6.00764 0.0 0.0 0.0 -3.17969 24.8 -3.35625 4.09654 -0.190242 -0.599616 19.6694 -23.1086 -3.11207 -25.4174 0.0 0.0 -0.0 0.0 -0.0 20.7572 -0.797424 -7.93374 -5.6337 -0.190618 -0.843248 0.850593 -10.3809 0.124297 6.20527 -0.0 -0.0 0.0 0.0 0.0 
2757.25488397 718.624 -1504.16875283 2.33553697806 86.8358298464 0.904456017125 -0.287621 0.0957225 1.63393 -0.286136 -0.00842828 1.63671 -0.285617 -0.360295 1.59659 -0.289159 -0.103657 1.63344 -20.3105 12.8785 -15.4719 -21.373 32.5377 -8.6002 -0.0 0.0 -0.0 -0.225726 17.9639 1.75916 41.0817 -15.1699 68.6844 2.88551 -55.0129 1.50274 20.1607 0.26443 -2.54852 1.44612 11.483 14.0738 -0.0 0.0 -0.0 6.72426 10.5649 -12.7794 -22.9626 27.3962 -67.2096 0.601484 16.592 -0.0877046 42.1274 0.464517 5.24195 -0.153311 -21.0544 -7.55938 0.0 0.0 0.0 -2.93727 25.1389 -3.21123 0.759726 -0.0320291 -0.112184 20.9698 -23.7736 -3.31632 -22.9132 0.0 0.0 -0.0 0.0 -0.0 20.1847 -0.519154 -7.96699 3.05111 0.137616 0.447884 -1.32308 -2.14729 -0.195402 2.47232 -0.0 -0.0 0.0 0.0 0.0 
2744.6158328 718.351 -1506.19597715 0.382871010391 85.7916878608 2.78146718336 -0.280198 0.0860934 1.61977 -0.278739 -0.0171377 1.62197 -0.278487 -0.365435 1.58037 -0.281955 -0.111293 1.61824 -20.234 13.4991 -15.1223 -21.4481 33.5652 -7.9575 -0.0 0.0 -0.0 0.0287288 17.0572 2.04456 41.9495 -15.145 68.6787 2.99956 -56.0482 1.59678 20.6771 0.259351 -2.61428 1.56713 9.29371 14.0882 -0.0 0.0 -0.0 6.53811 9.47033 -12.4357 -23.1428 27.434 -67.0464 0.650149 17.852 -0.102114 41.9428 0.454154 5.22073 0.138733 -21.5257 -9.47058 0.0 0.0 0.0 -2.71765 26.7196 -3.46773 -0.491674 0.0199331 0.0728196 21.0631 -23.0491 -3.30478 -21.9586 0.0 0.0 -0.0 0.0 -0.0 21.4693 -1.09101 -7.87453 6.44709 0.318644 0.937173 -3.75345 6.43053 -0.573286 -0.784737 0.0 0.0 0.0 0.0 0.0 
2726.24553903 716.572 -1511.39026777 8.89207278353 84.4652338964 -5.57022909847 -0.399376 0.16924 1.6007 -0.397953 0.067054 1.60823 -0.395232 -0.283455 1.58447 -0.398734 -0.029693 1.60935 -19.4066 13.3035 -15.6141 -20.4518 33.646 -8.77758 -0.0 0.0 -0.0 -0.503673 16.8198 1.19047 41.1635 -15.8155 68.7182 3.05477 -56.5302 1.6427 21.192 0.253699 -2.6798 1.87225 6.51914 15.1226 -0.0 0.0 -0.0 6.42976 8.76609 -12.2386 -22.7496 27.6376 -67.0447 0.608828 16.7832 -0.0898137 41.575 0.43371 5.17836 0.255464 -23.811 -10.9801 0.0 0.0 0.0 -4.52601 27.9604 -3.34554 -2.08188 0.0801042 0.309439 24.4629 -24.8232 -3.83109 -20.0373 0.0 0.0 -0.0 0.0 -0.0 22.5495 -1.34623 -8.33435 6.60022 0.32749 0.958982 -2.02388 12.3001 -0.318273 -2.18445 0.0 0.0 0.0 0.0 0.0 
2704.86237532 715.704 -1519.2323842 7.19232145451 83.5899657692 -4.10993941052 -0.453001 0.148544 1.58564 -0.451604 0.0473575 1.59187 -0.449463 -0.300621 1.56395 -0.452873 -0.0498832 1.5918 -19.0328 13.3666 -15.8575 -20.0334 33.9852 -9.09237 -0.0 0.0 -0.0 -0.716905 16.4786 0.81367 40.7956 -16.1262 68.745 3.1452 -57.294 1.71847 21.7826 0.246488 -2.7549 2.09339 4.44757 15.8577 -0.0 0.0 -0.0 6.36409 7.87156 -12.138 -22.773 27.7592 -67.0673 0.612793 16.8863 -0.090962 41.4731 0.428095 5.1666 0.462062 -25.2532 -12.6764 0.0 0.0 0.0 -5.66999 28.4857 -3.5877 -3.39116 0.124695 0.505422 26.8199 -26.6502 -4.22081 -18.232 0.0 0.0 -0.0 0.0 -0.0 23.6528 -1.35922 -8.22219 6.7567 0.336589 0.981242 -2.1851 17.1655 -0.356532 -3.83848 0.0 0.0 0.0 0.0 0.0 
2627.11209918 697.179 -1538.45249807 4.03593460828 81.22202639 -1.97953331166 -0.758629 -0.128846 1.85296 -0.756752 -0.246473 1.84101 -0.76377 -0.651389 1.7395 -0.767803 -0.368541 1.82051 -17.9495 12.3395 -18.2423 -18.4674 33.5912 -12.2239 -0.0 0.0 -0.0 -1.90014 15.0722 -1.27007 36.5698 -20.559 69.6911 3.11629 -57.0532 1.69418 22.0103 0.243502 -2.78383 2.62159 0.0566585 17.8297 -0.0 0.0 -0.0 7.03408 3.03853 -13.6429 -20.3528 26.4776 -65.2937 0.640018 17.5911 -0.0990303 42.6697 0.495359 5.30409 0.94089 -27.5904 -16.1734 0.0 0.0 0.0 -8.50467 35.1281 -3.57521 -7.64839 0.238523 1.1487 32.3056 -29.2646 -5.04228 -15.0527 0.0 0.0 -0.0 0.0 -0.0 29.5611 -2.28735 -7.60194 5.526 0.266674 0.805515 -7.0633 18.1301 -1.17431 -8.88586 0.0 0.0 0.0 0.0 0.0 
2559.67422675 685.081 -1552.34028924 0.0337152984863 80.1440455442 1.60016096154 -0.84842 -0.17551 1.99544 -0.846255 -0.302104 1.98024 -0.855664 -0.739754 1.86159 -0.860235 -0.436527 1.95501 -13.3717 10.6178 -18.994 -12.9792 31.9804 -15.1139 -0.0 0.0 -0.0 -2.57485 13.873 -2.57259 30.9176 -22.2009 70.846 2.72642 -53.4735 1.37363 22.8505 0.231488 -2.89048 2.98828 -2.48961 19.3924 -0.0 0.0 -0.0 7.44163 -0.297057 -14.4678 -20.3152 26.1094 -63.684 0.825118 22.2316 -0.162121 43.5145 0.544577 5.40032 1.19478 -26.1128 -17.2196 0.0 0.0 0.0 -13.5701 36.559 -2.94289 -8.30206 0.251754 1.24813 30.0706 -27.5784 -4.67684 -15.5844 0.0 0.0 -0.0 0.0 -0.0 31.1079 -2.44362 -7.5045 -0.0127575 -0.000525317 -0.00188727 -3.52353 18.7329 -0.58466 -5.72912 0.0 0.0 0.0 0.0 0.0 
